<mxfile host="Electron" agent="Mozilla/5.0 (X11; Linux x86_64) AppleWebKit/537.36 (KHTML, like Gecko) draw.io/26.0.15 Chrome/132.0.6834.196 Electron/34.2.0 Safari/537.36" version="26.0.15">
  <diagram name="Page-1" id="RFf4PqBk6n_TKoO0BcMt">
    <mxGraphModel dx="5736" dy="4440" grid="1" gridSize="10" guides="1" tooltips="1" connect="1" arrows="1" fold="1" page="1" pageScale="1" pageWidth="850" pageHeight="1100" math="0" shadow="0">
      <root>
        <mxCell id="0" />
        <mxCell id="1" parent="0" />
        <mxCell id="Q3ESZ-irNykhP6uwqSxK-1" value="" style="ellipse;html=1;shape=startState;fillColor=#000000;strokeColor=#ff0000;" parent="1" vertex="1">
          <mxGeometry x="390" y="20" width="30" height="30" as="geometry" />
        </mxCell>
        <mxCell id="Q3ESZ-irNykhP6uwqSxK-2" value="" style="edgeStyle=orthogonalEdgeStyle;html=1;verticalAlign=bottom;endArrow=open;endSize=8;strokeColor=#ff0000;rounded=0;entryX=0.5;entryY=0;entryDx=0;entryDy=0;" parent="1" source="Q3ESZ-irNykhP6uwqSxK-1" target="p4cgTAjj804NSbE1g_yL-1" edge="1">
          <mxGeometry relative="1" as="geometry">
            <mxPoint x="405" y="110" as="targetPoint" />
          </mxGeometry>
        </mxCell>
        <mxCell id="p4cgTAjj804NSbE1g_yL-9" style="edgeStyle=orthogonalEdgeStyle;rounded=0;orthogonalLoop=1;jettySize=auto;html=1;" parent="1" source="p4cgTAjj804NSbE1g_yL-1" target="p4cgTAjj804NSbE1g_yL-8" edge="1">
          <mxGeometry relative="1" as="geometry" />
        </mxCell>
        <mxCell id="-nOAWgCib1G5yj9HkppV-22" style="edgeStyle=orthogonalEdgeStyle;rounded=0;orthogonalLoop=1;jettySize=auto;html=1;entryX=0;entryY=0.5;entryDx=0;entryDy=0;exitX=1;exitY=0.25;exitDx=0;exitDy=0;" edge="1" parent="1" source="p4cgTAjj804NSbE1g_yL-1" target="-nOAWgCib1G5yj9HkppV-21">
          <mxGeometry relative="1" as="geometry" />
        </mxCell>
        <mxCell id="p4cgTAjj804NSbE1g_yL-1" value="&lt;div&gt;&amp;lt;&amp;lt;Page&amp;gt;&amp;gt;&lt;/div&gt;&lt;div&gt;Editare&lt;/div&gt;" style="html=1;whiteSpace=wrap;fillColor=#a0522d;strokeColor=#6D1F00;fontColor=#ffffff;" parent="1" vertex="1">
          <mxGeometry x="350" y="110" width="110" height="50" as="geometry" />
        </mxCell>
        <mxCell id="p4cgTAjj804NSbE1g_yL-13" style="edgeStyle=orthogonalEdgeStyle;rounded=0;orthogonalLoop=1;jettySize=auto;html=1;" parent="1" source="p4cgTAjj804NSbE1g_yL-5" target="p4cgTAjj804NSbE1g_yL-12" edge="1">
          <mxGeometry relative="1" as="geometry" />
        </mxCell>
        <mxCell id="p4cgTAjj804NSbE1g_yL-5" value="&lt;div&gt;&amp;lt;&amp;lt;Page&amp;gt;&amp;gt;&lt;/div&gt;&lt;div&gt;Setări&lt;/div&gt;" style="html=1;whiteSpace=wrap;fillColor=#a0522d;fontColor=#ffffff;strokeColor=#6D1F00;" parent="1" vertex="1">
          <mxGeometry x="180" y="535" width="120" height="50" as="geometry" />
        </mxCell>
        <mxCell id="p4cgTAjj804NSbE1g_yL-16" style="edgeStyle=orthogonalEdgeStyle;rounded=0;orthogonalLoop=1;jettySize=auto;html=1;entryX=0.5;entryY=0;entryDx=0;entryDy=0;" parent="1" source="p4cgTAjj804NSbE1g_yL-8" target="p4cgTAjj804NSbE1g_yL-15" edge="1">
          <mxGeometry relative="1" as="geometry" />
        </mxCell>
        <mxCell id="p4cgTAjj804NSbE1g_yL-8" value="Apăsare meniu" style="ellipse;whiteSpace=wrap;html=1;aspect=fixed;" parent="1" vertex="1">
          <mxGeometry x="365" y="210" width="80" height="80" as="geometry" />
        </mxCell>
        <mxCell id="p4cgTAjj804NSbE1g_yL-14" style="edgeStyle=orthogonalEdgeStyle;rounded=0;orthogonalLoop=1;jettySize=auto;html=1;entryX=0;entryY=0.5;entryDx=0;entryDy=0;" parent="1" source="p4cgTAjj804NSbE1g_yL-12" target="p4cgTAjj804NSbE1g_yL-1" edge="1">
          <mxGeometry relative="1" as="geometry">
            <Array as="points">
              <mxPoint x="110" y="135" />
            </Array>
          </mxGeometry>
        </mxCell>
        <mxCell id="p4cgTAjj804NSbE1g_yL-12" value="&lt;div&gt;Apăsare&lt;/div&gt;&lt;div&gt;&quot;înapoi&quot;&lt;/div&gt;" style="ellipse;whiteSpace=wrap;html=1;aspect=fixed;" parent="1" vertex="1">
          <mxGeometry x="70" y="520" width="80" height="80" as="geometry" />
        </mxCell>
        <mxCell id="p4cgTAjj804NSbE1g_yL-20" style="edgeStyle=orthogonalEdgeStyle;rounded=0;orthogonalLoop=1;jettySize=auto;html=1;entryX=0.5;entryY=0;entryDx=0;entryDy=0;" parent="1" source="p4cgTAjj804NSbE1g_yL-15" target="p4cgTAjj804NSbE1g_yL-19" edge="1">
          <mxGeometry relative="1" as="geometry" />
        </mxCell>
        <mxCell id="p4cgTAjj804NSbE1g_yL-15" value="&lt;div&gt;&amp;lt;&amp;lt;Popup&amp;gt;&amp;gt;&lt;/div&gt;&lt;div&gt;Meniu principal&lt;/div&gt;" style="rounded=0;whiteSpace=wrap;html=1;fillColor=#647687;fontColor=#ffffff;strokeColor=#314354;" parent="1" vertex="1">
          <mxGeometry x="345" y="320" width="120" height="60" as="geometry" />
        </mxCell>
        <mxCell id="p4cgTAjj804NSbE1g_yL-22" style="edgeStyle=orthogonalEdgeStyle;rounded=0;orthogonalLoop=1;jettySize=auto;html=1;entryX=1;entryY=0.5;entryDx=0;entryDy=0;" parent="1" source="p4cgTAjj804NSbE1g_yL-19" target="p4cgTAjj804NSbE1g_yL-5" edge="1">
          <mxGeometry relative="1" as="geometry">
            <Array as="points">
              <mxPoint x="405" y="560" />
            </Array>
          </mxGeometry>
        </mxCell>
        <mxCell id="-nOAWgCib1G5yj9HkppV-2" style="edgeStyle=orthogonalEdgeStyle;rounded=0;orthogonalLoop=1;jettySize=auto;html=1;entryX=1;entryY=0.5;entryDx=0;entryDy=0;" edge="1" parent="1" source="p4cgTAjj804NSbE1g_yL-19" target="-nOAWgCib1G5yj9HkppV-1">
          <mxGeometry relative="1" as="geometry">
            <mxPoint x="360" y="740" as="targetPoint" />
            <Array as="points">
              <mxPoint x="405" y="685" />
            </Array>
          </mxGeometry>
        </mxCell>
        <mxCell id="-nOAWgCib1G5yj9HkppV-9" style="edgeStyle=orthogonalEdgeStyle;rounded=0;orthogonalLoop=1;jettySize=auto;html=1;entryX=1;entryY=0.5;entryDx=0;entryDy=0;" edge="1" parent="1" source="p4cgTAjj804NSbE1g_yL-19" target="-nOAWgCib1G5yj9HkppV-12">
          <mxGeometry relative="1" as="geometry">
            <mxPoint x="320" y="810" as="targetPoint" />
            <Array as="points">
              <mxPoint x="405" y="1000" />
            </Array>
          </mxGeometry>
        </mxCell>
        <mxCell id="-nOAWgCib1G5yj9HkppV-15" style="edgeStyle=orthogonalEdgeStyle;rounded=0;orthogonalLoop=1;jettySize=auto;html=1;entryX=1;entryY=0.5;entryDx=0;entryDy=0;" edge="1" parent="1" source="p4cgTAjj804NSbE1g_yL-19" target="-nOAWgCib1G5yj9HkppV-14">
          <mxGeometry relative="1" as="geometry">
            <Array as="points">
              <mxPoint x="405" y="1195" />
            </Array>
          </mxGeometry>
        </mxCell>
        <mxCell id="p4cgTAjj804NSbE1g_yL-19" value="&lt;div&gt;&amp;lt;switch&amp;gt;&lt;/div&gt;&lt;div&gt;Selecție&lt;/div&gt;" style="rhombus;whiteSpace=wrap;html=1;" parent="1" vertex="1">
          <mxGeometry x="365" y="420" width="80" height="80" as="geometry" />
        </mxCell>
        <mxCell id="p4cgTAjj804NSbE1g_yL-23" value="case: &quot;Setări&quot;" style="text;html=1;align=center;verticalAlign=middle;whiteSpace=wrap;rounded=0;" parent="1" vertex="1">
          <mxGeometry x="310" y="535" width="90" height="30" as="geometry" />
        </mxCell>
        <mxCell id="-nOAWgCib1G5yj9HkppV-6" style="edgeStyle=orthogonalEdgeStyle;rounded=0;orthogonalLoop=1;jettySize=auto;html=1;entryX=1;entryY=0.5;entryDx=0;entryDy=0;" edge="1" parent="1" source="-nOAWgCib1G5yj9HkppV-1" target="-nOAWgCib1G5yj9HkppV-5">
          <mxGeometry relative="1" as="geometry" />
        </mxCell>
        <mxCell id="-nOAWgCib1G5yj9HkppV-1" value="&amp;lt;&amp;lt;Modal&amp;gt;&amp;gt;&lt;div&gt;Export&lt;/div&gt;" style="rounded=0;whiteSpace=wrap;html=1;fillColor=#647687;fontColor=#ffffff;strokeColor=#314354;" vertex="1" parent="1">
          <mxGeometry x="180" y="660" width="120" height="50" as="geometry" />
        </mxCell>
        <mxCell id="-nOAWgCib1G5yj9HkppV-3" value="case: &quot;Export&quot;" style="text;html=1;align=center;verticalAlign=middle;whiteSpace=wrap;rounded=0;" vertex="1" parent="1">
          <mxGeometry x="310" y="660" width="90" height="30" as="geometry" />
        </mxCell>
        <mxCell id="-nOAWgCib1G5yj9HkppV-92" style="edgeStyle=orthogonalEdgeStyle;rounded=0;orthogonalLoop=1;jettySize=auto;html=1;entryX=0.5;entryY=0;entryDx=0;entryDy=0;" edge="1" parent="1" source="-nOAWgCib1G5yj9HkppV-5" target="-nOAWgCib1G5yj9HkppV-91">
          <mxGeometry relative="1" as="geometry">
            <Array as="points">
              <mxPoint x="110" y="750" />
              <mxPoint x="250" y="750" />
            </Array>
          </mxGeometry>
        </mxCell>
        <mxCell id="-nOAWgCib1G5yj9HkppV-5" value="Selectare&lt;div&gt;destinație&lt;/div&gt;" style="ellipse;whiteSpace=wrap;html=1;aspect=fixed;" vertex="1" parent="1">
          <mxGeometry x="70" y="645" width="80" height="80" as="geometry" />
        </mxCell>
        <mxCell id="-nOAWgCib1G5yj9HkppV-10" value="case: &quot;Deschidere&quot;" style="text;html=1;align=center;verticalAlign=middle;whiteSpace=wrap;rounded=0;" vertex="1" parent="1">
          <mxGeometry x="310" y="970" width="90" height="30" as="geometry" />
        </mxCell>
        <mxCell id="-nOAWgCib1G5yj9HkppV-13" value="DA" style="edgeStyle=orthogonalEdgeStyle;rounded=0;orthogonalLoop=1;jettySize=auto;html=1;entryX=0;entryY=0.5;entryDx=0;entryDy=0;exitX=0;exitY=0.5;exitDx=0;exitDy=0;" edge="1" parent="1" source="-nOAWgCib1G5yj9HkppV-87" target="p4cgTAjj804NSbE1g_yL-1">
          <mxGeometry x="-0.9614" relative="1" as="geometry">
            <Array as="points">
              <mxPoint x="30" y="1000" />
              <mxPoint x="30" y="135" />
            </Array>
            <mxPoint as="offset" />
          </mxGeometry>
        </mxCell>
        <mxCell id="-nOAWgCib1G5yj9HkppV-12" value="Selectare fișier local" style="ellipse;whiteSpace=wrap;html=1;aspect=fixed;" vertex="1" parent="1">
          <mxGeometry x="207.5" y="960" width="80" height="80" as="geometry" />
        </mxCell>
        <mxCell id="-nOAWgCib1G5yj9HkppV-17" style="edgeStyle=orthogonalEdgeStyle;rounded=0;orthogonalLoop=1;jettySize=auto;html=1;entryX=0;entryY=0.5;entryDx=0;entryDy=0;" edge="1" parent="1" source="-nOAWgCib1G5yj9HkppV-19" target="p4cgTAjj804NSbE1g_yL-1">
          <mxGeometry relative="1" as="geometry">
            <Array as="points">
              <mxPoint x="30" y="135" />
            </Array>
          </mxGeometry>
        </mxCell>
        <mxCell id="-nOAWgCib1G5yj9HkppV-20" style="edgeStyle=orthogonalEdgeStyle;rounded=0;orthogonalLoop=1;jettySize=auto;html=1;entryX=1;entryY=0.5;entryDx=0;entryDy=0;" edge="1" parent="1" source="-nOAWgCib1G5yj9HkppV-14" target="-nOAWgCib1G5yj9HkppV-19">
          <mxGeometry relative="1" as="geometry" />
        </mxCell>
        <mxCell id="-nOAWgCib1G5yj9HkppV-14" value="&amp;lt;&amp;lt;Modal&amp;gt;&amp;gt;&lt;div&gt;Setări document&lt;/div&gt;" style="rounded=0;whiteSpace=wrap;html=1;fillColor=#647687;fontColor=#ffffff;strokeColor=#314354;" vertex="1" parent="1">
          <mxGeometry x="180" y="1170" width="120" height="50" as="geometry" />
        </mxCell>
        <mxCell id="-nOAWgCib1G5yj9HkppV-16" value="case: &quot;Setări document&quot;" style="text;html=1;align=center;verticalAlign=middle;whiteSpace=wrap;rounded=0;" vertex="1" parent="1">
          <mxGeometry x="310" y="1150" width="90" height="40" as="geometry" />
        </mxCell>
        <mxCell id="-nOAWgCib1G5yj9HkppV-19" value="Modificare și salvare setări document" style="ellipse;whiteSpace=wrap;html=1;aspect=fixed;" vertex="1" parent="1">
          <mxGeometry x="70" y="1155" width="80" height="80" as="geometry" />
        </mxCell>
        <mxCell id="-nOAWgCib1G5yj9HkppV-24" style="edgeStyle=orthogonalEdgeStyle;rounded=0;orthogonalLoop=1;jettySize=auto;html=1;" edge="1" parent="1" source="-nOAWgCib1G5yj9HkppV-21" target="-nOAWgCib1G5yj9HkppV-23">
          <mxGeometry relative="1" as="geometry" />
        </mxCell>
        <mxCell id="-nOAWgCib1G5yj9HkppV-21" value="Apăsare tab&lt;div&gt;&quot;Cloud&quot;&lt;/div&gt;" style="ellipse;whiteSpace=wrap;html=1;aspect=fixed;" vertex="1" parent="1">
          <mxGeometry x="730" y="95" width="80" height="80" as="geometry" />
        </mxCell>
        <mxCell id="-nOAWgCib1G5yj9HkppV-26" style="edgeStyle=orthogonalEdgeStyle;rounded=0;orthogonalLoop=1;jettySize=auto;html=1;entryX=1;entryY=0.5;entryDx=0;entryDy=0;" edge="1" parent="1" source="-nOAWgCib1G5yj9HkppV-23" target="-nOAWgCib1G5yj9HkppV-25">
          <mxGeometry relative="1" as="geometry" />
        </mxCell>
        <mxCell id="-nOAWgCib1G5yj9HkppV-30" style="edgeStyle=orthogonalEdgeStyle;rounded=0;orthogonalLoop=1;jettySize=auto;html=1;" edge="1" parent="1" source="-nOAWgCib1G5yj9HkppV-23" target="-nOAWgCib1G5yj9HkppV-28">
          <mxGeometry relative="1" as="geometry" />
        </mxCell>
        <mxCell id="-nOAWgCib1G5yj9HkppV-23" value="&amp;lt;&amp;lt;Page container&amp;gt;&amp;gt;&lt;div&gt;Container cloud&lt;/div&gt;" style="rounded=0;whiteSpace=wrap;html=1;fillColor=#a0522d;fontColor=#ffffff;strokeColor=#6D1F00;" vertex="1" parent="1">
          <mxGeometry x="710" y="260" width="120" height="60" as="geometry" />
        </mxCell>
        <mxCell id="-nOAWgCib1G5yj9HkppV-27" style="edgeStyle=orthogonalEdgeStyle;rounded=0;orthogonalLoop=1;jettySize=auto;html=1;entryX=1;entryY=0.75;entryDx=0;entryDy=0;" edge="1" parent="1" source="-nOAWgCib1G5yj9HkppV-25" target="p4cgTAjj804NSbE1g_yL-1">
          <mxGeometry relative="1" as="geometry">
            <Array as="points">
              <mxPoint x="510" y="290" />
              <mxPoint x="510" y="148" />
            </Array>
          </mxGeometry>
        </mxCell>
        <mxCell id="-nOAWgCib1G5yj9HkppV-25" value="Apăsare tab&lt;div&gt;&quot;Editare&quot;&lt;/div&gt;" style="ellipse;whiteSpace=wrap;html=1;aspect=fixed;" vertex="1" parent="1">
          <mxGeometry x="560" y="250" width="80" height="80" as="geometry" />
        </mxCell>
        <mxCell id="-nOAWgCib1G5yj9HkppV-29" value="NU" style="edgeStyle=orthogonalEdgeStyle;rounded=0;orthogonalLoop=1;jettySize=auto;html=1;exitX=0.5;exitY=1;exitDx=0;exitDy=0;" edge="1" parent="1" source="-nOAWgCib1G5yj9HkppV-28">
          <mxGeometry x="-0.715" relative="1" as="geometry">
            <mxPoint x="880" y="620" as="targetPoint" />
            <mxPoint x="770" y="520" as="sourcePoint" />
            <mxPoint as="offset" />
          </mxGeometry>
        </mxCell>
        <mxCell id="-nOAWgCib1G5yj9HkppV-32" value="DA" style="edgeStyle=orthogonalEdgeStyle;rounded=0;orthogonalLoop=1;jettySize=auto;html=1;entryX=0;entryY=0.5;entryDx=0;entryDy=0;" edge="1" parent="1" source="-nOAWgCib1G5yj9HkppV-28" target="-nOAWgCib1G5yj9HkppV-71">
          <mxGeometry x="-0.403" relative="1" as="geometry">
            <mxPoint x="1160" y="370" as="targetPoint" />
            <Array as="points">
              <mxPoint x="930" y="420" />
              <mxPoint x="930" y="350" />
            </Array>
            <mxPoint as="offset" />
          </mxGeometry>
        </mxCell>
        <mxCell id="-nOAWgCib1G5yj9HkppV-28" value="E logat" style="rhombus;whiteSpace=wrap;html=1;" vertex="1" parent="1">
          <mxGeometry x="730" y="380" width="80" height="80" as="geometry" />
        </mxCell>
        <mxCell id="-nOAWgCib1G5yj9HkppV-37" style="edgeStyle=orthogonalEdgeStyle;rounded=0;orthogonalLoop=1;jettySize=auto;html=1;" edge="1" parent="1" source="-nOAWgCib1G5yj9HkppV-36" target="-nOAWgCib1G5yj9HkppV-38">
          <mxGeometry relative="1" as="geometry">
            <mxPoint x="1020" y="590" as="targetPoint" />
          </mxGeometry>
        </mxCell>
        <mxCell id="-nOAWgCib1G5yj9HkppV-48" style="edgeStyle=orthogonalEdgeStyle;rounded=0;orthogonalLoop=1;jettySize=auto;html=1;entryX=0;entryY=0.5;entryDx=0;entryDy=0;" edge="1" parent="1" source="-nOAWgCib1G5yj9HkppV-36" target="-nOAWgCib1G5yj9HkppV-47">
          <mxGeometry relative="1" as="geometry">
            <Array as="points">
              <mxPoint x="910" y="770" />
            </Array>
          </mxGeometry>
        </mxCell>
        <mxCell id="-nOAWgCib1G5yj9HkppV-49" style="edgeStyle=orthogonalEdgeStyle;rounded=0;orthogonalLoop=1;jettySize=auto;html=1;entryX=0;entryY=0.5;entryDx=0;entryDy=0;" edge="1" parent="1" source="-nOAWgCib1G5yj9HkppV-36" target="-nOAWgCib1G5yj9HkppV-50">
          <mxGeometry relative="1" as="geometry">
            <mxPoint x="880" y="860" as="targetPoint" />
            <Array as="points">
              <mxPoint x="860" y="1060" />
            </Array>
          </mxGeometry>
        </mxCell>
        <mxCell id="-nOAWgCib1G5yj9HkppV-36" value="&amp;lt;&amp;lt;Page&amp;gt;&amp;gt;&lt;div&gt;Login&lt;/div&gt;" style="rounded=0;whiteSpace=wrap;html=1;fillColor=#a0522d;fontColor=#ffffff;strokeColor=#6D1F00;" vertex="1" parent="1">
          <mxGeometry x="820" y="620" width="120" height="60" as="geometry" />
        </mxCell>
        <mxCell id="-nOAWgCib1G5yj9HkppV-40" style="edgeStyle=orthogonalEdgeStyle;rounded=0;orthogonalLoop=1;jettySize=auto;html=1;" edge="1" parent="1" source="-nOAWgCib1G5yj9HkppV-38" target="-nOAWgCib1G5yj9HkppV-39">
          <mxGeometry relative="1" as="geometry" />
        </mxCell>
        <mxCell id="-nOAWgCib1G5yj9HkppV-38" value="Apăsare&lt;div&gt;buton &quot;Login&lt;span style=&quot;background-color: transparent; color: light-dark(rgb(0, 0, 0), rgb(255, 255, 255));&quot;&gt;&quot;&lt;/span&gt;&lt;/div&gt;" style="ellipse;whiteSpace=wrap;html=1;aspect=fixed;" vertex="1" parent="1">
          <mxGeometry x="1020" y="610" width="80" height="80" as="geometry" />
        </mxCell>
        <mxCell id="-nOAWgCib1G5yj9HkppV-44" value="NU" style="edgeStyle=orthogonalEdgeStyle;rounded=0;orthogonalLoop=1;jettySize=auto;html=1;entryX=0.5;entryY=0;entryDx=0;entryDy=0;" edge="1" parent="1" source="-nOAWgCib1G5yj9HkppV-39" target="-nOAWgCib1G5yj9HkppV-36">
          <mxGeometry x="-0.7778" relative="1" as="geometry">
            <mxPoint as="offset" />
          </mxGeometry>
        </mxCell>
        <mxCell id="-nOAWgCib1G5yj9HkppV-46" value="DA" style="edgeStyle=orthogonalEdgeStyle;rounded=0;orthogonalLoop=1;jettySize=auto;html=1;exitX=1;exitY=0.5;exitDx=0;exitDy=0;entryX=0.5;entryY=1;entryDx=0;entryDy=0;" edge="1" parent="1" source="-nOAWgCib1G5yj9HkppV-39" target="-nOAWgCib1G5yj9HkppV-71">
          <mxGeometry x="-0.6676" relative="1" as="geometry">
            <mxPoint x="1190" y="400" as="targetPoint" />
            <mxPoint as="offset" />
          </mxGeometry>
        </mxCell>
        <mxCell id="-nOAWgCib1G5yj9HkppV-39" value="Credențiale&lt;div&gt;corecte&lt;/div&gt;" style="rhombus;whiteSpace=wrap;html=1;" vertex="1" parent="1">
          <mxGeometry x="1020" y="450" width="80" height="80" as="geometry" />
        </mxCell>
        <mxCell id="-nOAWgCib1G5yj9HkppV-52" style="edgeStyle=orthogonalEdgeStyle;rounded=0;orthogonalLoop=1;jettySize=auto;html=1;" edge="1" parent="1" source="-nOAWgCib1G5yj9HkppV-47" target="-nOAWgCib1G5yj9HkppV-51">
          <mxGeometry relative="1" as="geometry" />
        </mxCell>
        <mxCell id="-nOAWgCib1G5yj9HkppV-47" value="Apăsare&lt;div&gt;&quot;Înregistrare&quot;&lt;/div&gt;" style="ellipse;whiteSpace=wrap;html=1;aspect=fixed;" vertex="1" parent="1">
          <mxGeometry x="1020" y="730" width="80" height="80" as="geometry" />
        </mxCell>
        <mxCell id="-nOAWgCib1G5yj9HkppV-57" style="edgeStyle=orthogonalEdgeStyle;rounded=0;orthogonalLoop=1;jettySize=auto;html=1;" edge="1" parent="1" source="-nOAWgCib1G5yj9HkppV-50" target="-nOAWgCib1G5yj9HkppV-56">
          <mxGeometry relative="1" as="geometry" />
        </mxCell>
        <mxCell id="-nOAWgCib1G5yj9HkppV-50" value="Apăsare&lt;div&gt;&quot;Am uitat parola&quot;&lt;/div&gt;" style="ellipse;whiteSpace=wrap;html=1;aspect=fixed;" vertex="1" parent="1">
          <mxGeometry x="1020" y="1020" width="80" height="80" as="geometry" />
        </mxCell>
        <mxCell id="-nOAWgCib1G5yj9HkppV-54" style="edgeStyle=orthogonalEdgeStyle;rounded=0;orthogonalLoop=1;jettySize=auto;html=1;" edge="1" parent="1" source="-nOAWgCib1G5yj9HkppV-51" target="-nOAWgCib1G5yj9HkppV-53">
          <mxGeometry relative="1" as="geometry" />
        </mxCell>
        <mxCell id="-nOAWgCib1G5yj9HkppV-62" style="edgeStyle=orthogonalEdgeStyle;rounded=0;orthogonalLoop=1;jettySize=auto;html=1;entryX=0;entryY=0.5;entryDx=0;entryDy=0;" edge="1" parent="1" source="-nOAWgCib1G5yj9HkppV-51" target="-nOAWgCib1G5yj9HkppV-61">
          <mxGeometry relative="1" as="geometry" />
        </mxCell>
        <mxCell id="-nOAWgCib1G5yj9HkppV-51" value="&amp;lt;&amp;lt;Page&amp;gt;&amp;gt;&lt;div&gt;Înregistrare&lt;/div&gt;" style="rounded=0;whiteSpace=wrap;html=1;fillColor=#a0522d;fontColor=#ffffff;strokeColor=#6D1F00;" vertex="1" parent="1">
          <mxGeometry x="1155" y="740" width="120" height="60" as="geometry" />
        </mxCell>
        <mxCell id="-nOAWgCib1G5yj9HkppV-55" style="edgeStyle=orthogonalEdgeStyle;rounded=0;orthogonalLoop=1;jettySize=auto;html=1;" edge="1" parent="1" source="-nOAWgCib1G5yj9HkppV-53" target="-nOAWgCib1G5yj9HkppV-36">
          <mxGeometry relative="1" as="geometry" />
        </mxCell>
        <mxCell id="-nOAWgCib1G5yj9HkppV-53" value="Apăsare&lt;div&gt;&quot;Login&lt;span style=&quot;background-color: transparent; color: light-dark(rgb(0, 0, 0), rgb(255, 255, 255));&quot;&gt;&quot;&lt;/span&gt;&lt;/div&gt;" style="ellipse;whiteSpace=wrap;html=1;aspect=fixed;" vertex="1" parent="1">
          <mxGeometry x="1175" y="830" width="80" height="80" as="geometry" />
        </mxCell>
        <mxCell id="-nOAWgCib1G5yj9HkppV-59" style="edgeStyle=orthogonalEdgeStyle;rounded=0;orthogonalLoop=1;jettySize=auto;html=1;" edge="1" parent="1" source="-nOAWgCib1G5yj9HkppV-56" target="-nOAWgCib1G5yj9HkppV-58">
          <mxGeometry relative="1" as="geometry" />
        </mxCell>
        <mxCell id="-nOAWgCib1G5yj9HkppV-68" style="edgeStyle=orthogonalEdgeStyle;rounded=0;orthogonalLoop=1;jettySize=auto;html=1;" edge="1" parent="1" source="-nOAWgCib1G5yj9HkppV-56" target="-nOAWgCib1G5yj9HkppV-67">
          <mxGeometry relative="1" as="geometry" />
        </mxCell>
        <mxCell id="-nOAWgCib1G5yj9HkppV-56" value="&amp;lt;&amp;lt;Page&amp;gt;&amp;gt;&lt;div&gt;Am uitat parola&lt;/div&gt;" style="rounded=0;whiteSpace=wrap;html=1;fillColor=#a0522d;fontColor=#ffffff;strokeColor=#6D1F00;" vertex="1" parent="1">
          <mxGeometry x="1155" y="1030" width="120" height="60" as="geometry" />
        </mxCell>
        <mxCell id="-nOAWgCib1G5yj9HkppV-60" style="edgeStyle=orthogonalEdgeStyle;rounded=0;orthogonalLoop=1;jettySize=auto;html=1;entryX=0.5;entryY=1;entryDx=0;entryDy=0;" edge="1" parent="1" source="-nOAWgCib1G5yj9HkppV-58" target="-nOAWgCib1G5yj9HkppV-36">
          <mxGeometry relative="1" as="geometry" />
        </mxCell>
        <mxCell id="-nOAWgCib1G5yj9HkppV-58" value="Apăsare&lt;div&gt;buton &quot;Înapoi&lt;span style=&quot;background-color: transparent; color: light-dark(rgb(0, 0, 0), rgb(255, 255, 255));&quot;&gt;&quot;&lt;/span&gt;&lt;/div&gt;" style="ellipse;whiteSpace=wrap;html=1;aspect=fixed;" vertex="1" parent="1">
          <mxGeometry x="1175" y="930" width="80" height="80" as="geometry" />
        </mxCell>
        <mxCell id="-nOAWgCib1G5yj9HkppV-64" style="edgeStyle=orthogonalEdgeStyle;rounded=0;orthogonalLoop=1;jettySize=auto;html=1;" edge="1" parent="1" source="-nOAWgCib1G5yj9HkppV-61" target="-nOAWgCib1G5yj9HkppV-63">
          <mxGeometry relative="1" as="geometry" />
        </mxCell>
        <mxCell id="-nOAWgCib1G5yj9HkppV-61" value="Apăsare buton &quot;Înregistrare&quot;" style="ellipse;whiteSpace=wrap;html=1;aspect=fixed;" vertex="1" parent="1">
          <mxGeometry x="1350" y="730" width="80" height="80" as="geometry" />
        </mxCell>
        <mxCell id="-nOAWgCib1G5yj9HkppV-65" value="NU" style="edgeStyle=orthogonalEdgeStyle;rounded=0;orthogonalLoop=1;jettySize=auto;html=1;" edge="1" parent="1" source="-nOAWgCib1G5yj9HkppV-63" target="-nOAWgCib1G5yj9HkppV-51">
          <mxGeometry x="-0.8049" relative="1" as="geometry">
            <mxPoint as="offset" />
          </mxGeometry>
        </mxCell>
        <mxCell id="-nOAWgCib1G5yj9HkppV-66" value="DA" style="edgeStyle=orthogonalEdgeStyle;rounded=0;orthogonalLoop=1;jettySize=auto;html=1;entryX=0.5;entryY=1;entryDx=0;entryDy=0;" edge="1" parent="1" source="-nOAWgCib1G5yj9HkppV-63" target="-nOAWgCib1G5yj9HkppV-71">
          <mxGeometry x="-0.6564" relative="1" as="geometry">
            <mxPoint x="1390" y="450" as="targetPoint" />
            <Array as="points">
              <mxPoint x="1390" y="490" />
              <mxPoint x="1275" y="490" />
            </Array>
            <mxPoint as="offset" />
          </mxGeometry>
        </mxCell>
        <mxCell id="-nOAWgCib1G5yj9HkppV-63" value="Date corecte și totul OK pe server" style="rhombus;whiteSpace=wrap;html=1;" vertex="1" parent="1">
          <mxGeometry x="1330" y="595" width="120" height="110" as="geometry" />
        </mxCell>
        <mxCell id="-nOAWgCib1G5yj9HkppV-69" value="NU" style="edgeStyle=orthogonalEdgeStyle;rounded=0;orthogonalLoop=1;jettySize=auto;html=1;entryX=0.75;entryY=0;entryDx=0;entryDy=0;" edge="1" parent="1" source="-nOAWgCib1G5yj9HkppV-67" target="-nOAWgCib1G5yj9HkppV-56">
          <mxGeometry x="-0.88" relative="1" as="geometry">
            <Array as="points">
              <mxPoint x="1420" y="960" />
              <mxPoint x="1290" y="960" />
              <mxPoint x="1290" y="1010" />
              <mxPoint x="1245" y="1010" />
            </Array>
            <mxPoint as="offset" />
          </mxGeometry>
        </mxCell>
        <mxCell id="-nOAWgCib1G5yj9HkppV-70" value="DA" style="edgeStyle=orthogonalEdgeStyle;rounded=0;orthogonalLoop=1;jettySize=auto;html=1;entryX=0.5;entryY=1;entryDx=0;entryDy=0;" edge="1" parent="1" source="-nOAWgCib1G5yj9HkppV-67" target="-nOAWgCib1G5yj9HkppV-71">
          <mxGeometry x="-0.9375" relative="1" as="geometry">
            <mxPoint x="1510" y="450" as="targetPoint" />
            <Array as="points">
              <mxPoint x="1530" y="1060" />
              <mxPoint x="1530" y="490" />
              <mxPoint x="1275" y="490" />
            </Array>
            <mxPoint as="offset" />
          </mxGeometry>
        </mxCell>
        <mxCell id="-nOAWgCib1G5yj9HkppV-67" value="Date corecte și totul OK pe server" style="rhombus;whiteSpace=wrap;html=1;" vertex="1" parent="1">
          <mxGeometry x="1360" y="1005" width="120" height="110" as="geometry" />
        </mxCell>
        <mxCell id="-nOAWgCib1G5yj9HkppV-73" style="edgeStyle=orthogonalEdgeStyle;rounded=0;orthogonalLoop=1;jettySize=auto;html=1;" edge="1" parent="1" source="-nOAWgCib1G5yj9HkppV-71" target="-nOAWgCib1G5yj9HkppV-72">
          <mxGeometry relative="1" as="geometry" />
        </mxCell>
        <mxCell id="-nOAWgCib1G5yj9HkppV-79" style="edgeStyle=orthogonalEdgeStyle;rounded=0;orthogonalLoop=1;jettySize=auto;html=1;exitX=1;exitY=0.25;exitDx=0;exitDy=0;" edge="1" parent="1" source="-nOAWgCib1G5yj9HkppV-71" target="-nOAWgCib1G5yj9HkppV-78">
          <mxGeometry relative="1" as="geometry" />
        </mxCell>
        <mxCell id="-nOAWgCib1G5yj9HkppV-98" style="edgeStyle=orthogonalEdgeStyle;rounded=0;orthogonalLoop=1;jettySize=auto;html=1;exitX=1;exitY=0.5;exitDx=0;exitDy=0;entryX=0;entryY=0.5;entryDx=0;entryDy=0;exitPerimeter=0;" edge="1" parent="1" source="-nOAWgCib1G5yj9HkppV-99" target="-nOAWgCib1G5yj9HkppV-97">
          <mxGeometry relative="1" as="geometry">
            <Array as="points" />
          </mxGeometry>
        </mxCell>
        <mxCell id="-nOAWgCib1G5yj9HkppV-71" value="&amp;lt;&amp;lt;Page&amp;gt;&amp;gt;&lt;div&gt;Cloud&lt;/div&gt;" style="rounded=0;whiteSpace=wrap;html=1;fillColor=#a0522d;fontColor=#ffffff;strokeColor=#6D1F00;" vertex="1" parent="1">
          <mxGeometry x="1215" y="320" width="120" height="60" as="geometry" />
        </mxCell>
        <mxCell id="-nOAWgCib1G5yj9HkppV-74" style="edgeStyle=orthogonalEdgeStyle;rounded=0;orthogonalLoop=1;jettySize=auto;html=1;" edge="1" parent="1" source="-nOAWgCib1G5yj9HkppV-76" target="-nOAWgCib1G5yj9HkppV-36">
          <mxGeometry relative="1" as="geometry" />
        </mxCell>
        <mxCell id="-nOAWgCib1G5yj9HkppV-72" value="Apăsare buton &quot;Delogare&quot;" style="ellipse;whiteSpace=wrap;html=1;aspect=fixed;" vertex="1" parent="1">
          <mxGeometry x="1235" y="175" width="80" height="80" as="geometry" />
        </mxCell>
        <mxCell id="-nOAWgCib1G5yj9HkppV-77" value="" style="edgeStyle=orthogonalEdgeStyle;rounded=0;orthogonalLoop=1;jettySize=auto;html=1;" edge="1" parent="1" source="-nOAWgCib1G5yj9HkppV-72" target="-nOAWgCib1G5yj9HkppV-76">
          <mxGeometry relative="1" as="geometry">
            <mxPoint x="1235" y="215" as="sourcePoint" />
            <mxPoint x="880" y="620" as="targetPoint" />
          </mxGeometry>
        </mxCell>
        <mxCell id="-nOAWgCib1G5yj9HkppV-76" value="" style="verticalLabelPosition=bottom;verticalAlign=top;html=1;shape=mxgraph.basic.arc;startAngle=0;endAngle=0.5;" vertex="1" parent="1">
          <mxGeometry x="865" y="405" width="30" height="30" as="geometry" />
        </mxCell>
        <mxCell id="-nOAWgCib1G5yj9HkppV-80" value="DA" style="edgeStyle=orthogonalEdgeStyle;rounded=0;orthogonalLoop=1;jettySize=auto;html=1;entryX=0.75;entryY=0;entryDx=0;entryDy=0;exitX=0;exitY=0.5;exitDx=0;exitDy=0;" edge="1" parent="1" source="-nOAWgCib1G5yj9HkppV-82" target="p4cgTAjj804NSbE1g_yL-1">
          <mxGeometry x="-0.9228" relative="1" as="geometry">
            <Array as="points">
              <mxPoint x="1100" y="60" />
              <mxPoint x="433" y="60" />
            </Array>
            <mxPoint as="offset" />
          </mxGeometry>
        </mxCell>
        <mxCell id="-nOAWgCib1G5yj9HkppV-78" value="Selectare fișier" style="ellipse;whiteSpace=wrap;html=1;aspect=fixed;" vertex="1" parent="1">
          <mxGeometry x="1370" y="175" width="80" height="80" as="geometry" />
        </mxCell>
        <mxCell id="-nOAWgCib1G5yj9HkppV-81" value="" style="edgeStyle=orthogonalEdgeStyle;rounded=0;orthogonalLoop=1;jettySize=auto;html=1;entryX=0.5;entryY=1;entryDx=0;entryDy=0;" edge="1" parent="1" source="-nOAWgCib1G5yj9HkppV-78" target="-nOAWgCib1G5yj9HkppV-82">
          <mxGeometry relative="1" as="geometry">
            <mxPoint x="1410" y="175" as="sourcePoint" />
            <mxPoint x="433" y="110" as="targetPoint" />
            <Array as="points">
              <mxPoint x="1410" y="150" />
              <mxPoint x="1410" y="150" />
            </Array>
          </mxGeometry>
        </mxCell>
        <mxCell id="-nOAWgCib1G5yj9HkppV-83" value="NU" style="edgeStyle=orthogonalEdgeStyle;rounded=0;orthogonalLoop=1;jettySize=auto;html=1;entryX=0.5;entryY=0;entryDx=0;entryDy=0;" edge="1" parent="1" source="-nOAWgCib1G5yj9HkppV-82" target="-nOAWgCib1G5yj9HkppV-84">
          <mxGeometry x="-0.8186" relative="1" as="geometry">
            <mxPoint x="1550" y="180" as="targetPoint" />
            <mxPoint as="offset" />
          </mxGeometry>
        </mxCell>
        <mxCell id="-nOAWgCib1G5yj9HkppV-82" value="A primit date" style="rhombus;whiteSpace=wrap;html=1;" vertex="1" parent="1">
          <mxGeometry x="1370" y="20" width="80" height="80" as="geometry" />
        </mxCell>
        <mxCell id="-nOAWgCib1G5yj9HkppV-85" value="OK" style="edgeStyle=orthogonalEdgeStyle;rounded=0;orthogonalLoop=1;jettySize=auto;html=1;entryX=1;entryY=0.75;entryDx=0;entryDy=0;" edge="1" parent="1" source="-nOAWgCib1G5yj9HkppV-84" target="-nOAWgCib1G5yj9HkppV-71">
          <mxGeometry x="-0.8437" relative="1" as="geometry">
            <Array as="points">
              <mxPoint x="1550" y="365" />
            </Array>
            <mxPoint as="offset" />
          </mxGeometry>
        </mxCell>
        <mxCell id="-nOAWgCib1G5yj9HkppV-84" value="&amp;lt;&amp;lt;Dialog&amp;gt;&amp;gt;&lt;div&gt;Eroare deschidere fișier&lt;/div&gt;" style="rounded=0;whiteSpace=wrap;html=1;fillColor=#a20025;fontColor=#ffffff;strokeColor=#6F0000;" vertex="1" parent="1">
          <mxGeometry x="1490" y="185" width="120" height="60" as="geometry" />
        </mxCell>
        <mxCell id="-nOAWgCib1G5yj9HkppV-86" value="" style="edgeStyle=orthogonalEdgeStyle;rounded=0;orthogonalLoop=1;jettySize=auto;html=1;entryX=1;entryY=0.5;entryDx=0;entryDy=0;exitX=0;exitY=0.5;exitDx=0;exitDy=0;" edge="1" parent="1" source="-nOAWgCib1G5yj9HkppV-12" target="-nOAWgCib1G5yj9HkppV-87">
          <mxGeometry relative="1" as="geometry">
            <mxPoint x="208" y="1000" as="sourcePoint" />
            <mxPoint x="350" y="325" as="targetPoint" />
            <Array as="points" />
          </mxGeometry>
        </mxCell>
        <mxCell id="-nOAWgCib1G5yj9HkppV-88" value="NU" style="edgeStyle=orthogonalEdgeStyle;rounded=0;orthogonalLoop=1;jettySize=auto;html=1;" edge="1" parent="1" source="-nOAWgCib1G5yj9HkppV-87" target="-nOAWgCib1G5yj9HkppV-89">
          <mxGeometry x="-0.5714" relative="1" as="geometry">
            <mxPoint x="120" y="1090" as="targetPoint" />
            <Array as="points">
              <mxPoint x="120" y="1050" />
              <mxPoint x="230" y="1050" />
            </Array>
            <mxPoint as="offset" />
          </mxGeometry>
        </mxCell>
        <mxCell id="-nOAWgCib1G5yj9HkppV-87" value="Succes deschidere fișier" style="rhombus;whiteSpace=wrap;html=1;" vertex="1" parent="1">
          <mxGeometry x="80" y="960" width="80" height="80" as="geometry" />
        </mxCell>
        <mxCell id="-nOAWgCib1G5yj9HkppV-90" value="OK" style="edgeStyle=orthogonalEdgeStyle;rounded=0;orthogonalLoop=1;jettySize=auto;html=1;entryX=0;entryY=0.5;entryDx=0;entryDy=0;" edge="1" parent="1" source="-nOAWgCib1G5yj9HkppV-89" target="p4cgTAjj804NSbE1g_yL-1">
          <mxGeometry x="-0.9716" relative="1" as="geometry">
            <Array as="points">
              <mxPoint x="30" y="1100" />
              <mxPoint x="30" y="135" />
            </Array>
            <mxPoint x="1" as="offset" />
          </mxGeometry>
        </mxCell>
        <mxCell id="-nOAWgCib1G5yj9HkppV-89" value="&amp;lt;&amp;lt;Dialog&amp;gt;&amp;gt;&lt;div&gt;Eroare deschidere fișier&lt;/div&gt;" style="rounded=0;whiteSpace=wrap;html=1;fillColor=#a20025;fontColor=#ffffff;strokeColor=#6F0000;" vertex="1" parent="1">
          <mxGeometry x="167.5" y="1070" width="120" height="60" as="geometry" />
        </mxCell>
        <mxCell id="-nOAWgCib1G5yj9HkppV-93" value="DA" style="edgeStyle=orthogonalEdgeStyle;rounded=0;orthogonalLoop=1;jettySize=auto;html=1;entryX=0;entryY=0.5;entryDx=0;entryDy=0;" edge="1" parent="1" source="-nOAWgCib1G5yj9HkppV-91" target="p4cgTAjj804NSbE1g_yL-1">
          <mxGeometry x="-0.966" relative="1" as="geometry">
            <Array as="points">
              <mxPoint x="30" y="810" />
              <mxPoint x="30" y="135" />
            </Array>
            <mxPoint as="offset" />
          </mxGeometry>
        </mxCell>
        <mxCell id="-nOAWgCib1G5yj9HkppV-95" value="NU" style="edgeStyle=orthogonalEdgeStyle;rounded=0;orthogonalLoop=1;jettySize=auto;html=1;" edge="1" parent="1" source="-nOAWgCib1G5yj9HkppV-91" target="-nOAWgCib1G5yj9HkppV-94">
          <mxGeometry x="0.2" relative="1" as="geometry">
            <mxPoint as="offset" />
          </mxGeometry>
        </mxCell>
        <mxCell id="-nOAWgCib1G5yj9HkppV-91" value="Succes deschidere fișier" style="rhombus;whiteSpace=wrap;html=1;" vertex="1" parent="1">
          <mxGeometry x="210" y="770" width="80" height="80" as="geometry" />
        </mxCell>
        <mxCell id="-nOAWgCib1G5yj9HkppV-96" value="OK" style="edgeStyle=orthogonalEdgeStyle;rounded=0;orthogonalLoop=1;jettySize=auto;html=1;entryX=0;entryY=0.5;entryDx=0;entryDy=0;" edge="1" parent="1" source="-nOAWgCib1G5yj9HkppV-94" target="p4cgTAjj804NSbE1g_yL-1">
          <mxGeometry x="-0.9679" relative="1" as="geometry">
            <Array as="points">
              <mxPoint x="30" y="910" />
              <mxPoint x="30" y="135" />
            </Array>
            <mxPoint as="offset" />
          </mxGeometry>
        </mxCell>
        <mxCell id="-nOAWgCib1G5yj9HkppV-94" value="&amp;lt;&amp;lt;Dialog&amp;gt;&amp;gt;&lt;div&gt;Eroare deschidere fișier&lt;/div&gt;" style="rounded=0;whiteSpace=wrap;html=1;fillColor=#a20025;fontColor=#ffffff;strokeColor=#6F0000;" vertex="1" parent="1">
          <mxGeometry x="190" y="880" width="120" height="60" as="geometry" />
        </mxCell>
        <mxCell id="-nOAWgCib1G5yj9HkppV-102" style="edgeStyle=orthogonalEdgeStyle;rounded=0;orthogonalLoop=1;jettySize=auto;html=1;" edge="1" parent="1" source="-nOAWgCib1G5yj9HkppV-97" target="-nOAWgCib1G5yj9HkppV-101">
          <mxGeometry relative="1" as="geometry" />
        </mxCell>
        <mxCell id="-nOAWgCib1G5yj9HkppV-97" value="Selectare &quot;Opțiuni item&quot;" style="ellipse;whiteSpace=wrap;html=1;aspect=fixed;" vertex="1" parent="1">
          <mxGeometry x="1730" y="290" width="80" height="80" as="geometry" />
        </mxCell>
        <mxCell id="-nOAWgCib1G5yj9HkppV-100" value="" style="edgeStyle=orthogonalEdgeStyle;rounded=0;orthogonalLoop=1;jettySize=auto;html=1;exitX=1;exitY=0.25;exitDx=0;exitDy=0;entryX=0;entryY=0.5;entryDx=0;entryDy=0;" edge="1" parent="1" source="-nOAWgCib1G5yj9HkppV-71" target="-nOAWgCib1G5yj9HkppV-99">
          <mxGeometry relative="1" as="geometry">
            <mxPoint x="1335" y="335" as="sourcePoint" />
            <mxPoint x="1640" y="330" as="targetPoint" />
            <Array as="points" />
          </mxGeometry>
        </mxCell>
        <mxCell id="-nOAWgCib1G5yj9HkppV-99" value="" style="verticalLabelPosition=bottom;verticalAlign=top;html=1;shape=mxgraph.basic.arc;startAngle=0.75;endAngle=0.25;" vertex="1" parent="1">
          <mxGeometry x="1535" y="315" width="30" height="30" as="geometry" />
        </mxCell>
        <mxCell id="-nOAWgCib1G5yj9HkppV-104" style="edgeStyle=orthogonalEdgeStyle;rounded=0;orthogonalLoop=1;jettySize=auto;html=1;" edge="1" parent="1" source="-nOAWgCib1G5yj9HkppV-101" target="-nOAWgCib1G5yj9HkppV-103">
          <mxGeometry relative="1" as="geometry" />
        </mxCell>
        <mxCell id="-nOAWgCib1G5yj9HkppV-107" style="edgeStyle=orthogonalEdgeStyle;rounded=0;orthogonalLoop=1;jettySize=auto;html=1;" edge="1" parent="1" source="-nOAWgCib1G5yj9HkppV-101" target="-nOAWgCib1G5yj9HkppV-106">
          <mxGeometry relative="1" as="geometry">
            <Array as="points">
              <mxPoint x="1770" y="140" />
              <mxPoint x="1900" y="140" />
            </Array>
          </mxGeometry>
        </mxCell>
        <mxCell id="-nOAWgCib1G5yj9HkppV-101" value="&amp;lt;&amp;lt;Popup&amp;gt;&amp;gt;&lt;div&gt;Opțiuni item&lt;/div&gt;" style="rounded=0;whiteSpace=wrap;html=1;fillColor=#647687;fontColor=#ffffff;strokeColor=#314354;" vertex="1" parent="1">
          <mxGeometry x="1710" y="160" width="120" height="60" as="geometry" />
        </mxCell>
        <mxCell id="-nOAWgCib1G5yj9HkppV-105" style="edgeStyle=orthogonalEdgeStyle;rounded=0;orthogonalLoop=1;jettySize=auto;html=1;entryX=0.5;entryY=0;entryDx=0;entryDy=0;" edge="1" parent="1" source="-nOAWgCib1G5yj9HkppV-103" target="-nOAWgCib1G5yj9HkppV-82">
          <mxGeometry relative="1" as="geometry">
            <Array as="points">
              <mxPoint x="1770" />
              <mxPoint x="1410" />
            </Array>
          </mxGeometry>
        </mxCell>
        <mxCell id="-nOAWgCib1G5yj9HkppV-103" value="Selectare&lt;div&gt;&quot;Deschidere&quot;&lt;/div&gt;" style="ellipse;whiteSpace=wrap;html=1;aspect=fixed;" vertex="1" parent="1">
          <mxGeometry x="1730" y="30" width="80" height="80" as="geometry" />
        </mxCell>
        <mxCell id="-nOAWgCib1G5yj9HkppV-109" style="edgeStyle=orthogonalEdgeStyle;rounded=0;orthogonalLoop=1;jettySize=auto;html=1;" edge="1" parent="1" source="-nOAWgCib1G5yj9HkppV-106" target="-nOAWgCib1G5yj9HkppV-108">
          <mxGeometry relative="1" as="geometry" />
        </mxCell>
        <mxCell id="-nOAWgCib1G5yj9HkppV-106" value="Selectare&lt;div&gt;&quot;Ștergere&quot;&lt;/div&gt;" style="ellipse;whiteSpace=wrap;html=1;aspect=fixed;" vertex="1" parent="1">
          <mxGeometry x="1860" y="30" width="80" height="80" as="geometry" />
        </mxCell>
        <mxCell id="-nOAWgCib1G5yj9HkppV-110" value="NU" style="edgeStyle=orthogonalEdgeStyle;rounded=0;orthogonalLoop=1;jettySize=auto;html=1;entryX=0.75;entryY=1;entryDx=0;entryDy=0;" edge="1" parent="1" source="-nOAWgCib1G5yj9HkppV-108" target="-nOAWgCib1G5yj9HkppV-71">
          <mxGeometry x="-0.9679" relative="1" as="geometry">
            <mxPoint x="2040" y="-50" as="targetPoint" />
            <Array as="points">
              <mxPoint x="2000" y="-50" />
              <mxPoint x="2000" y="430" />
              <mxPoint x="1305" y="430" />
            </Array>
            <mxPoint as="offset" />
          </mxGeometry>
        </mxCell>
        <mxCell id="-nOAWgCib1G5yj9HkppV-111" value="DA" style="edgeStyle=orthogonalEdgeStyle;rounded=0;orthogonalLoop=1;jettySize=auto;html=1;entryX=0.5;entryY=1;entryDx=0;entryDy=0;" edge="1" parent="1" source="-nOAWgCib1G5yj9HkppV-108" target="-nOAWgCib1G5yj9HkppV-112">
          <mxGeometry relative="1" as="geometry">
            <mxPoint x="1900" y="-140" as="targetPoint" />
          </mxGeometry>
        </mxCell>
        <mxCell id="-nOAWgCib1G5yj9HkppV-108" value="&amp;lt;&amp;lt;Dialog&amp;gt;&amp;gt;&lt;div&gt;Confirmare ștergere&lt;/div&gt;" style="rounded=0;whiteSpace=wrap;html=1;fillColor=#a20025;fontColor=#ffffff;strokeColor=#6F0000;" vertex="1" parent="1">
          <mxGeometry x="1840" y="-80" width="120" height="60" as="geometry" />
        </mxCell>
        <mxCell id="-nOAWgCib1G5yj9HkppV-113" value="DA" style="edgeStyle=orthogonalEdgeStyle;rounded=0;orthogonalLoop=1;jettySize=auto;html=1;entryX=0.75;entryY=1;entryDx=0;entryDy=0;" edge="1" parent="1" source="-nOAWgCib1G5yj9HkppV-112" target="-nOAWgCib1G5yj9HkppV-71">
          <mxGeometry x="-0.97" relative="1" as="geometry">
            <mxPoint x="2040" y="-160" as="targetPoint" />
            <Array as="points">
              <mxPoint x="2000" y="-160" />
              <mxPoint x="2000" y="430" />
              <mxPoint x="1305" y="430" />
            </Array>
            <mxPoint as="offset" />
          </mxGeometry>
        </mxCell>
        <mxCell id="-nOAWgCib1G5yj9HkppV-115" value="NU" style="edgeStyle=orthogonalEdgeStyle;rounded=0;orthogonalLoop=1;jettySize=auto;html=1;entryX=0;entryY=0.5;entryDx=0;entryDy=0;" edge="1" parent="1" source="-nOAWgCib1G5yj9HkppV-112" target="-nOAWgCib1G5yj9HkppV-114">
          <mxGeometry x="-0.6364" relative="1" as="geometry">
            <mxPoint as="offset" />
          </mxGeometry>
        </mxCell>
        <mxCell id="-nOAWgCib1G5yj9HkppV-112" value="Succes ștergere" style="rhombus;whiteSpace=wrap;html=1;" vertex="1" parent="1">
          <mxGeometry x="1860" y="-200" width="80" height="80" as="geometry" />
        </mxCell>
        <mxCell id="-nOAWgCib1G5yj9HkppV-116" value="OK" style="edgeStyle=orthogonalEdgeStyle;rounded=0;orthogonalLoop=1;jettySize=auto;html=1;entryX=0.75;entryY=1;entryDx=0;entryDy=0;" edge="1" parent="1" source="-nOAWgCib1G5yj9HkppV-114" target="-nOAWgCib1G5yj9HkppV-71">
          <mxGeometry x="-0.9576" relative="1" as="geometry">
            <Array as="points">
              <mxPoint x="2000" y="430" />
              <mxPoint x="1305" y="430" />
            </Array>
            <mxPoint as="offset" />
          </mxGeometry>
        </mxCell>
        <mxCell id="-nOAWgCib1G5yj9HkppV-114" value="&amp;lt;&amp;lt;Dialog&amp;gt;&amp;gt;&lt;div&gt;Eroare ștergere item&lt;/div&gt;" style="rounded=0;whiteSpace=wrap;html=1;fillColor=#a20025;fontColor=#ffffff;strokeColor=#6F0000;" vertex="1" parent="1">
          <mxGeometry x="1940" y="-300" width="120" height="60" as="geometry" />
        </mxCell>
        <mxCell id="-nOAWgCib1G5yj9HkppV-119" style="edgeStyle=orthogonalEdgeStyle;rounded=0;orthogonalLoop=1;jettySize=auto;html=1;entryX=0;entryY=0.5;entryDx=0;entryDy=0;" edge="1" parent="1" source="-nOAWgCib1G5yj9HkppV-117" target="-nOAWgCib1G5yj9HkppV-120">
          <mxGeometry relative="1" as="geometry">
            <mxPoint x="1750" y="520" as="targetPoint" />
            <Array as="points">
              <mxPoint x="1665" y="520" />
              <mxPoint x="1730" y="520" />
            </Array>
          </mxGeometry>
        </mxCell>
        <mxCell id="-nOAWgCib1G5yj9HkppV-117" value="" style="verticalLabelPosition=bottom;verticalAlign=top;html=1;shape=mxgraph.basic.arc;startAngle=0;endAngle=0.5;" vertex="1" parent="1">
          <mxGeometry x="1650" y="415" width="30" height="30" as="geometry" />
        </mxCell>
        <mxCell id="-nOAWgCib1G5yj9HkppV-118" style="edgeStyle=orthogonalEdgeStyle;rounded=0;orthogonalLoop=1;jettySize=auto;html=1;entryX=0.533;entryY=0.033;entryDx=0;entryDy=0;entryPerimeter=0;" edge="1" parent="1" source="-nOAWgCib1G5yj9HkppV-99" target="-nOAWgCib1G5yj9HkppV-117">
          <mxGeometry relative="1" as="geometry" />
        </mxCell>
        <mxCell id="-nOAWgCib1G5yj9HkppV-122" style="edgeStyle=orthogonalEdgeStyle;rounded=0;orthogonalLoop=1;jettySize=auto;html=1;entryX=0.5;entryY=0;entryDx=0;entryDy=0;" edge="1" parent="1" source="-nOAWgCib1G5yj9HkppV-120" target="-nOAWgCib1G5yj9HkppV-121">
          <mxGeometry relative="1" as="geometry" />
        </mxCell>
        <mxCell id="-nOAWgCib1G5yj9HkppV-120" value="Selectare &quot;Setări cont&quot;" style="ellipse;whiteSpace=wrap;html=1;aspect=fixed;" vertex="1" parent="1">
          <mxGeometry x="1730" y="480" width="80" height="80" as="geometry" />
        </mxCell>
        <mxCell id="-nOAWgCib1G5yj9HkppV-124" style="edgeStyle=orthogonalEdgeStyle;rounded=0;orthogonalLoop=1;jettySize=auto;html=1;entryX=0;entryY=0.5;entryDx=0;entryDy=0;" edge="1" parent="1" source="-nOAWgCib1G5yj9HkppV-121" target="-nOAWgCib1G5yj9HkppV-123">
          <mxGeometry relative="1" as="geometry" />
        </mxCell>
        <mxCell id="-nOAWgCib1G5yj9HkppV-126" style="edgeStyle=orthogonalEdgeStyle;rounded=0;orthogonalLoop=1;jettySize=auto;html=1;entryX=0;entryY=0.5;entryDx=0;entryDy=0;" edge="1" parent="1" source="-nOAWgCib1G5yj9HkppV-121" target="-nOAWgCib1G5yj9HkppV-125">
          <mxGeometry relative="1" as="geometry" />
        </mxCell>
        <mxCell id="-nOAWgCib1G5yj9HkppV-121" value="&amp;lt;&amp;lt;Page&amp;gt;&amp;gt;&lt;div&gt;Setări cont&lt;/div&gt;" style="rounded=0;whiteSpace=wrap;html=1;fillColor=#a0522d;fontColor=#ffffff;strokeColor=#6D1F00;" vertex="1" parent="1">
          <mxGeometry x="1710" y="620" width="120" height="60" as="geometry" />
        </mxCell>
        <mxCell id="-nOAWgCib1G5yj9HkppV-128" style="edgeStyle=orthogonalEdgeStyle;rounded=0;orthogonalLoop=1;jettySize=auto;html=1;entryX=0;entryY=0.5;entryDx=0;entryDy=0;" edge="1" parent="1" source="-nOAWgCib1G5yj9HkppV-123" target="-nOAWgCib1G5yj9HkppV-127">
          <mxGeometry relative="1" as="geometry" />
        </mxCell>
        <mxCell id="-nOAWgCib1G5yj9HkppV-123" value="Selectare &quot;Resetare parolă&quot;" style="ellipse;whiteSpace=wrap;html=1;aspect=fixed;" vertex="1" parent="1">
          <mxGeometry x="1990" y="610" width="80" height="80" as="geometry" />
        </mxCell>
        <mxCell id="-nOAWgCib1G5yj9HkppV-147" style="edgeStyle=orthogonalEdgeStyle;rounded=0;orthogonalLoop=1;jettySize=auto;html=1;entryX=0;entryY=0.5;entryDx=0;entryDy=0;" edge="1" parent="1" source="-nOAWgCib1G5yj9HkppV-125" target="-nOAWgCib1G5yj9HkppV-146">
          <mxGeometry relative="1" as="geometry" />
        </mxCell>
        <mxCell id="-nOAWgCib1G5yj9HkppV-125" value="Selectare &quot;Ștergere cont&quot;" style="ellipse;whiteSpace=wrap;html=1;aspect=fixed;" vertex="1" parent="1">
          <mxGeometry x="1990" y="860" width="80" height="80" as="geometry" />
        </mxCell>
        <mxCell id="-nOAWgCib1G5yj9HkppV-130" style="edgeStyle=orthogonalEdgeStyle;rounded=0;orthogonalLoop=1;jettySize=auto;html=1;entryX=0;entryY=0.5;entryDx=0;entryDy=0;" edge="1" parent="1" target="-nOAWgCib1G5yj9HkppV-129">
          <mxGeometry relative="1" as="geometry">
            <mxPoint x="2500" y="650" as="sourcePoint" />
          </mxGeometry>
        </mxCell>
        <mxCell id="-nOAWgCib1G5yj9HkppV-141" style="edgeStyle=orthogonalEdgeStyle;rounded=0;orthogonalLoop=1;jettySize=auto;html=1;" edge="1" parent="1" source="-nOAWgCib1G5yj9HkppV-127" target="-nOAWgCib1G5yj9HkppV-140">
          <mxGeometry relative="1" as="geometry" />
        </mxCell>
        <mxCell id="-nOAWgCib1G5yj9HkppV-127" value="&amp;lt;&amp;lt;Modal&amp;gt;&amp;gt;&lt;div&gt;Resetare parolă&lt;/div&gt;" style="rounded=0;whiteSpace=wrap;html=1;fillColor=#647687;fontColor=#ffffff;strokeColor=#314354;" vertex="1" parent="1">
          <mxGeometry x="2190" y="620" width="120" height="60" as="geometry" />
        </mxCell>
        <mxCell id="-nOAWgCib1G5yj9HkppV-132" value="NU" style="edgeStyle=orthogonalEdgeStyle;rounded=0;orthogonalLoop=1;jettySize=auto;html=1;" edge="1" parent="1" source="-nOAWgCib1G5yj9HkppV-129" target="-nOAWgCib1G5yj9HkppV-131">
          <mxGeometry x="-0.4286" relative="1" as="geometry">
            <mxPoint as="offset" />
          </mxGeometry>
        </mxCell>
        <mxCell id="-nOAWgCib1G5yj9HkppV-135" value="DA" style="edgeStyle=orthogonalEdgeStyle;rounded=0;orthogonalLoop=1;jettySize=auto;html=1;" edge="1" parent="1" source="-nOAWgCib1G5yj9HkppV-129" target="-nOAWgCib1G5yj9HkppV-134">
          <mxGeometry x="-0.8261" relative="1" as="geometry">
            <mxPoint as="offset" />
          </mxGeometry>
        </mxCell>
        <mxCell id="-nOAWgCib1G5yj9HkppV-129" value="Succes resetare pe server" style="rhombus;whiteSpace=wrap;html=1;" vertex="1" parent="1">
          <mxGeometry x="2520" y="610" width="80" height="80" as="geometry" />
        </mxCell>
        <mxCell id="-nOAWgCib1G5yj9HkppV-133" value="OK" style="edgeStyle=orthogonalEdgeStyle;rounded=0;orthogonalLoop=1;jettySize=auto;html=1;entryX=0.75;entryY=0;entryDx=0;entryDy=0;" edge="1" parent="1" source="-nOAWgCib1G5yj9HkppV-131" target="-nOAWgCib1G5yj9HkppV-121">
          <mxGeometry x="-0.9118" relative="1" as="geometry">
            <Array as="points">
              <mxPoint x="1840" y="510" />
              <mxPoint x="1840" y="570" />
              <mxPoint x="1800" y="570" />
            </Array>
            <mxPoint as="offset" />
          </mxGeometry>
        </mxCell>
        <mxCell id="-nOAWgCib1G5yj9HkppV-131" value="&amp;lt;&amp;lt;Dialog&amp;gt;&amp;gt;&lt;div&gt;Eroare resetare date&lt;/div&gt;" style="rounded=0;whiteSpace=wrap;html=1;fillColor=#a20025;fontColor=#ffffff;strokeColor=#6F0000;" vertex="1" parent="1">
          <mxGeometry x="2500" y="480" width="120" height="60" as="geometry" />
        </mxCell>
        <mxCell id="-nOAWgCib1G5yj9HkppV-136" style="edgeStyle=orthogonalEdgeStyle;rounded=0;orthogonalLoop=1;jettySize=auto;html=1;entryX=0.75;entryY=0;entryDx=0;entryDy=0;" edge="1" parent="1" source="-nOAWgCib1G5yj9HkppV-134" target="-nOAWgCib1G5yj9HkppV-121">
          <mxGeometry relative="1" as="geometry">
            <Array as="points">
              <mxPoint x="2720" y="460" />
              <mxPoint x="1840" y="460" />
              <mxPoint x="1840" y="570" />
              <mxPoint x="1800" y="570" />
            </Array>
          </mxGeometry>
        </mxCell>
        <mxCell id="-nOAWgCib1G5yj9HkppV-134" value="&amp;lt;&amp;lt;Toast&amp;gt;&amp;gt;&lt;div&gt;Confirmare succes resetare&lt;/div&gt;" style="rounded=0;whiteSpace=wrap;html=1;fillColor=#647687;fontColor=#ffffff;strokeColor=#314354;" vertex="1" parent="1">
          <mxGeometry x="2660" y="480" width="120" height="60" as="geometry" />
        </mxCell>
        <mxCell id="-nOAWgCib1G5yj9HkppV-137" value="" style="edgeStyle=orthogonalEdgeStyle;rounded=0;orthogonalLoop=1;jettySize=auto;html=1;entryX=0;entryY=0.5;entryDx=0;entryDy=0;" edge="1" parent="1" source="-nOAWgCib1G5yj9HkppV-127" target="-nOAWgCib1G5yj9HkppV-138">
          <mxGeometry relative="1" as="geometry">
            <mxPoint x="2310" y="650" as="sourcePoint" />
            <mxPoint x="2390" y="650" as="targetPoint" />
          </mxGeometry>
        </mxCell>
        <mxCell id="-nOAWgCib1G5yj9HkppV-139" value="" style="edgeStyle=orthogonalEdgeStyle;rounded=0;orthogonalLoop=1;jettySize=auto;html=1;exitX=0.987;exitY=0.5;exitDx=0;exitDy=0;exitPerimeter=0;" edge="1" parent="1" source="-nOAWgCib1G5yj9HkppV-138" target="-nOAWgCib1G5yj9HkppV-129">
          <mxGeometry relative="1" as="geometry" />
        </mxCell>
        <mxCell id="-nOAWgCib1G5yj9HkppV-138" value="Apăsare buton &quot;Resetare&quot;" style="ellipse;whiteSpace=wrap;html=1;aspect=fixed;" vertex="1" parent="1">
          <mxGeometry x="2380" y="610" width="80" height="80" as="geometry" />
        </mxCell>
        <mxCell id="-nOAWgCib1G5yj9HkppV-142" style="edgeStyle=orthogonalEdgeStyle;rounded=0;orthogonalLoop=1;jettySize=auto;html=1;entryX=0.5;entryY=1;entryDx=0;entryDy=0;" edge="1" parent="1" source="-nOAWgCib1G5yj9HkppV-143" target="-nOAWgCib1G5yj9HkppV-121">
          <mxGeometry relative="1" as="geometry" />
        </mxCell>
        <mxCell id="-nOAWgCib1G5yj9HkppV-140" value="Apăsare buton &quot;Anulare&quot;" style="ellipse;whiteSpace=wrap;html=1;aspect=fixed;" vertex="1" parent="1">
          <mxGeometry x="2210" y="730" width="80" height="80" as="geometry" />
        </mxCell>
        <mxCell id="-nOAWgCib1G5yj9HkppV-145" value="" style="edgeStyle=orthogonalEdgeStyle;rounded=0;orthogonalLoop=1;jettySize=auto;html=1;entryX=1;entryY=0.5;entryDx=0;entryDy=0;entryPerimeter=0;" edge="1" parent="1" source="-nOAWgCib1G5yj9HkppV-140" target="-nOAWgCib1G5yj9HkppV-143">
          <mxGeometry relative="1" as="geometry">
            <mxPoint x="2210" y="770" as="sourcePoint" />
            <mxPoint x="1770" y="680" as="targetPoint" />
          </mxGeometry>
        </mxCell>
        <mxCell id="-nOAWgCib1G5yj9HkppV-143" value="" style="verticalLabelPosition=bottom;verticalAlign=top;html=1;shape=mxgraph.basic.arc;startAngle=0.75;endAngle=0.25;" vertex="1" parent="1">
          <mxGeometry x="1890" y="755" width="30" height="30" as="geometry" />
        </mxCell>
        <mxCell id="-nOAWgCib1G5yj9HkppV-149" style="edgeStyle=orthogonalEdgeStyle;rounded=0;orthogonalLoop=1;jettySize=auto;html=1;entryX=0.5;entryY=1;entryDx=0;entryDy=0;exitX=0.002;exitY=0.498;exitDx=0;exitDy=0;exitPerimeter=0;" edge="1" parent="1" source="-nOAWgCib1G5yj9HkppV-150" target="-nOAWgCib1G5yj9HkppV-121">
          <mxGeometry relative="1" as="geometry">
            <Array as="points">
              <mxPoint x="1900" y="830" />
              <mxPoint x="1770" y="830" />
            </Array>
          </mxGeometry>
        </mxCell>
        <mxCell id="-nOAWgCib1G5yj9HkppV-152" value="DA" style="edgeStyle=orthogonalEdgeStyle;rounded=0;orthogonalLoop=1;jettySize=auto;html=1;entryX=0.5;entryY=0;entryDx=0;entryDy=0;" edge="1" parent="1" source="-nOAWgCib1G5yj9HkppV-146" target="-nOAWgCib1G5yj9HkppV-153">
          <mxGeometry x="-0.2" relative="1" as="geometry">
            <mxPoint x="2250" y="1000" as="targetPoint" />
            <mxPoint as="offset" />
          </mxGeometry>
        </mxCell>
        <mxCell id="-nOAWgCib1G5yj9HkppV-146" value="&amp;lt;&amp;lt;Dialog&amp;gt;&amp;gt;&lt;div&gt;Confirmare ștergere cont&lt;/div&gt;" style="rounded=0;whiteSpace=wrap;html=1;fillColor=#a20025;fontColor=#ffffff;strokeColor=#6F0000;" vertex="1" parent="1">
          <mxGeometry x="2190" y="870" width="120" height="60" as="geometry" />
        </mxCell>
        <mxCell id="-nOAWgCib1G5yj9HkppV-151" value="NU" style="edgeStyle=orthogonalEdgeStyle;rounded=0;orthogonalLoop=1;jettySize=auto;html=1;entryX=1.02;entryY=0.498;entryDx=0;entryDy=0;entryPerimeter=0;" edge="1" parent="1" source="-nOAWgCib1G5yj9HkppV-146" target="-nOAWgCib1G5yj9HkppV-150">
          <mxGeometry x="-0.9451" relative="1" as="geometry">
            <mxPoint x="2250" y="870" as="sourcePoint" />
            <mxPoint x="1910" y="830" as="targetPoint" />
            <Array as="points">
              <mxPoint x="2250" y="840" />
              <mxPoint x="1931" y="840" />
            </Array>
            <mxPoint as="offset" />
          </mxGeometry>
        </mxCell>
        <mxCell id="-nOAWgCib1G5yj9HkppV-150" value="" style="verticalLabelPosition=bottom;verticalAlign=top;html=1;shape=mxgraph.basic.arc;startAngle=0.75;endAngle=0.25;" vertex="1" parent="1">
          <mxGeometry x="1900" y="810" width="30" height="30" as="geometry" />
        </mxCell>
        <mxCell id="-nOAWgCib1G5yj9HkppV-156" value="NU" style="edgeStyle=orthogonalEdgeStyle;rounded=0;orthogonalLoop=1;jettySize=auto;html=1;" edge="1" parent="1" source="-nOAWgCib1G5yj9HkppV-153" target="-nOAWgCib1G5yj9HkppV-155">
          <mxGeometry x="-0.5294" relative="1" as="geometry">
            <mxPoint as="offset" />
          </mxGeometry>
        </mxCell>
        <mxCell id="-nOAWgCib1G5yj9HkppV-160" value="DA" style="edgeStyle=orthogonalEdgeStyle;rounded=0;orthogonalLoop=1;jettySize=auto;html=1;" edge="1" parent="1" source="-nOAWgCib1G5yj9HkppV-153" target="-nOAWgCib1G5yj9HkppV-159">
          <mxGeometry x="-0.2" relative="1" as="geometry">
            <mxPoint as="offset" />
          </mxGeometry>
        </mxCell>
        <mxCell id="-nOAWgCib1G5yj9HkppV-153" value="Succes ștergere cont" style="rhombus;whiteSpace=wrap;html=1;" vertex="1" parent="1">
          <mxGeometry x="2210" y="980" width="80" height="80" as="geometry" />
        </mxCell>
        <mxCell id="-nOAWgCib1G5yj9HkppV-157" value="OK" style="edgeStyle=orthogonalEdgeStyle;rounded=0;orthogonalLoop=1;jettySize=auto;html=1;" edge="1" parent="1" source="-nOAWgCib1G5yj9HkppV-155" target="-nOAWgCib1G5yj9HkppV-121">
          <mxGeometry x="-0.913" relative="1" as="geometry">
            <mxPoint as="offset" />
          </mxGeometry>
        </mxCell>
        <mxCell id="-nOAWgCib1G5yj9HkppV-155" value="&amp;lt;&amp;lt;Dialog&amp;gt;&amp;gt;&lt;div&gt;Eroare ștergere cont&lt;/div&gt;" style="rounded=0;whiteSpace=wrap;html=1;fillColor=#a20025;fontColor=#ffffff;strokeColor=#6F0000;" vertex="1" parent="1">
          <mxGeometry x="2005" y="990" width="120" height="60" as="geometry" />
        </mxCell>
        <mxCell id="-nOAWgCib1G5yj9HkppV-161" style="edgeStyle=orthogonalEdgeStyle;rounded=0;orthogonalLoop=1;jettySize=auto;html=1;entryX=1;entryY=0.75;entryDx=0;entryDy=0;" edge="1" parent="1" source="-nOAWgCib1G5yj9HkppV-159" target="p4cgTAjj804NSbE1g_yL-1">
          <mxGeometry relative="1" as="geometry">
            <Array as="points">
              <mxPoint x="510" y="1140" />
              <mxPoint x="510" y="148" />
            </Array>
          </mxGeometry>
        </mxCell>
        <mxCell id="-nOAWgCib1G5yj9HkppV-159" value="&amp;lt;&amp;lt;Toast&amp;gt;&amp;gt;&lt;div&gt;Confirmare succes ștergere&lt;/div&gt;" style="rounded=0;whiteSpace=wrap;html=1;fillColor=#647687;fontColor=#ffffff;strokeColor=#314354;" vertex="1" parent="1">
          <mxGeometry x="2190" y="1110" width="120" height="60" as="geometry" />
        </mxCell>
      </root>
    </mxGraphModel>
  </diagram>
</mxfile>
